<svg width="37" height="40" viewBox="0 0 37 40" fill="none" xmlns="http://www.w3.org/2000/svg">
<path d="M17.832 16.0039H22.4492C24.707 16.0039 26.3789 16.4375 27.4648 17.3047C29.082 18.5859 29.8906 20.5938 29.8906 23.3281C29.8906 26.1641 29.1836 28.2148 27.7695 29.4805C27.1289 30.0508 26.4102 30.4531 25.6133 30.6875C24.8242 30.9219 23.7734 31.0391 22.4609 31.0391H17.4805L19.0859 29.8086V17.3516L17.832 16.0039ZM21.3828 16.9883V30.1367H22.0273V17.7617C22.4336 17.6992 22.8047 17.668 23.1406 17.668C23.7812 17.668 24.2852 17.7344 24.6523 17.8672C25.0273 17.9922 25.4023 18.2266 25.7773 18.5703C24.9492 18.1797 24.0625 17.9844 23.1172 17.9844C22.9141 17.9844 22.6484 18 22.3203 18.0312V30.1367C23.1953 30.1367 23.8594 30.0664 24.3125 29.9258C24.7656 29.7773 25.1953 29.4961 25.6016 29.082C26.7344 27.9336 27.3008 26.0039 27.3008 23.293C27.3008 20.6445 26.6875 18.8359 25.4609 17.8672C24.7188 17.2812 23.543 16.9883 21.9336 16.9883H21.3828ZM18.207 32L18.0312 31.6836H22.3203C24.4297 31.6836 26.0312 31.3906 27.125 30.8047C29.4766 29.5547 30.6523 27.1367 30.6523 23.5508C30.6523 21.1523 30.125 19.3711 29.0703 18.207L28.6016 17.6914C28.5859 17.6758 28.5391 17.6211 28.4609 17.5273C30.1172 18.5664 30.9453 20.5547 30.9453 23.4922C30.9453 26.5781 30.125 28.8516 28.4844 30.3125C27.2266 31.4375 25.1719 32 22.3203 32H18.207Z" fill="#57954F"/>
<path d="M25.5469 14.0039C25.4766 14.1367 25.4297 14.2266 25.4062 14.2734L24.6094 15.6797C24.3359 16.1797 24.082 16.8047 23.8477 17.5547L23.8242 17.6133L23.707 17.5312L23.6719 17.3789C23.4453 16.4883 23.1211 15.8711 22.6992 15.5273C22.2852 15.1836 21.6484 15.0117 20.7891 15.0117C20.4375 15.0117 20.0859 15.0273 19.7344 15.0586H19.5938V27.7617L20.9766 29.0391H15.6211L17.2617 27.668V16.0078L16.4297 15.9961C15.625 15.9961 15.0508 16.1562 14.707 16.4766C14.3711 16.7891 14.1719 17.3438 14.1094 18.1406H13.8047C13.8906 17.2266 14.125 16.5898 14.5078 16.2305C14.8984 15.8711 15.5391 15.6914 16.4297 15.6914L17.1328 15.7031H17.2617V15.1289C16.8633 15.082 16.4844 15.0586 16.125 15.0586C15.1172 15.0586 14.3906 15.2656 13.9453 15.6797C13.5 16.0859 13.2539 16.7773 13.207 17.7539H13.0664C12.7305 16.668 12.2109 15.457 11.5078 14.1211L11.4375 14.0039H25.5469ZM26.2852 14.7422C25.7461 15.4297 25.1797 16.5703 24.5859 18.1641L24.5391 18.2812L24.2812 18.0586L24.3164 17.9531C24.8945 16.3359 25.4531 15.2109 25.9922 14.5781L26.0508 14.5078L26.2852 14.7422ZM23.1562 16.5703C22.5547 16.1797 21.8516 15.9844 21.0469 15.9844C20.8672 15.9844 20.6797 15.9961 20.4844 16.0195L20.5312 27.7969L22.3945 30H16.4062L16.1367 29.6836H21.75L20.1797 27.8906V15.6797L20.8125 15.668C21.5703 15.668 22.1055 15.7305 22.418 15.8555C22.7383 15.9727 22.9844 16.2109 23.1562 16.5703Z" fill="#57954F"/>
<path d="M9.5625 10.6172L9.36328 10.5C8.61328 10.0859 7.92578 9.87891 7.30078 9.87891C5.24609 9.87891 4.21875 11.8984 4.21875 15.9375C4.21875 18.8906 4.85547 20.8477 6.12891 21.8086L6.02344 21.9258C5.24219 21.3711 4.68359 20.6445 4.34766 19.7461C4.01953 18.8398 3.85547 17.6172 3.85547 16.0781C3.85547 11.7422 4.99609 9.57422 7.27734 9.57422C8.31641 9.57422 9.07812 9.92188 9.5625 10.6172ZM7.05469 7.85156C8.95312 7.85156 10.4688 8.57031 11.6016 10.0078C12.7422 11.4453 13.3125 13.3672 13.3125 15.7734C13.3125 18.0469 12.75 19.8594 11.625 21.2109C10.5078 22.5625 9.00391 23.2383 7.11328 23.2383C5.62109 23.2383 4.29297 22.7617 3.12891 21.8086C1.41797 20.4023 0.5625 18.3203 0.5625 15.5625C0.5625 13.2031 1.14844 11.3281 2.32031 9.9375C3.49219 8.54688 5.07031 7.85156 7.05469 7.85156ZM7.05469 8.85938C4.41406 8.85938 3.09375 11.1797 3.09375 15.8203C3.09375 20.1094 4.39453 22.2539 6.99609 22.2539C8.20703 22.2539 9.12891 21.6875 9.76172 20.5547C10.3945 19.4141 10.7109 17.75 10.7109 15.5625C10.7109 13.0859 10.4062 11.3594 9.79688 10.3828C9.15625 9.36719 8.24219 8.85938 7.05469 8.85938ZM10.793 8.44922C11.9102 8.98828 12.793 9.91016 13.4414 11.2148C14.0898 12.5195 14.4141 14.0273 14.4141 15.7383C14.4141 18.2539 13.7734 20.2852 12.4922 21.832C11.2188 23.3789 9.54297 24.1523 7.46484 24.1523C6.13672 24.1523 4.89453 23.7031 3.73828 22.8047V22.7461C4.70703 23.457 5.92188 23.8125 7.38281 23.8125C9.34375 23.8125 10.9531 23.0742 12.2109 21.5977C13.4688 20.1211 14.0977 18.2344 14.0977 15.9375C14.0977 14.2266 13.8086 12.7305 13.2305 11.4492C12.6602 10.168 11.8477 9.21094 10.793 8.57812V8.44922Z" fill="#57954F"/>
</svg>
